<svg width="192" height="192" viewBox="0 0 192 192" fill="none" xmlns="http://www.w3.org/2000/svg">
<g filter="url(#filter0_d_18_2321)">
<path d="M167.934 131.638L97.4466 173.458V156.099L167.934 115.331V131.638Z" fill="url(#paint0_linear_18_2321)"/>
<path d="M24.0658 131.638L24.3288 115.331L97.4466 156.099V173.458L24.0658 131.638Z" fill="url(#paint1_linear_18_2321)"/>
<path d="M97.4466 156.099L24.3288 115.331L38.0055 109.019L97.4466 141.633L154.258 109.019L167.934 115.331L97.4466 156.099Z" fill="url(#paint2_linear_18_2321)"/>
<path d="M97.4466 173.458V156.099L97.1836 155.941V156.362C97.1875 162.906 97.1836 173.194 97.1836 173.194L97.4466 173.458Z" fill="url(#paint3_linear_18_2321)"/>
<path d="M97.4466 156.099L24.3288 115.331L24.5918 115.211L97.4466 155.836V156.099Z" fill="url(#paint4_linear_18_2321)"/>
<path d="M151.89 115.595L146.893 113.248L154.258 109.019L159.255 111.334L151.89 115.595Z" fill="url(#paint5_linear_18_2321)"/>
<path d="M38.0055 109.019L33.4554 111.123L97.4466 146.893V141.633L38.0055 109.019Z" fill="url(#paint6_linear_18_2321)"/>
<path d="M115.332 136.373L97.4466 146.893V141.633L115.332 131.367V136.373Z" fill="url(#paint7_linear_18_2321)"/>
</g>
<path d="M82.1918 71.4082L96.6575 62.4658L96.9205 39.8466L62.4657 59.8356L82.1918 71.4082Z" fill="url(#paint8_linear_18_2321)"/>
<path d="M23.8027 58.7836L24.0657 79.8247L97.7096 122.959L96.9205 99.8137L23.8027 58.7836Z" fill="url(#paint9_linear_18_2321)"/>
<path d="M114.805 113.49L97.7096 122.959L96.9205 99.8137L114.542 90.0822L114.805 113.49Z" fill="url(#paint10_radial_18_2321)"/>
<path d="M167.145 85.611L150.312 95.0795L149.523 71.9343L168.197 59.8356L167.145 85.611Z" fill="url(#paint11_radial_18_2321)"/>
<path d="M62.7288 59.8356L114.542 90.0822L96.9205 99.8137L23.8027 58.7836L96.9205 18.5425L168.197 59.8356L149.523 71.9343L96.9205 39.8466L62.7288 59.8356Z" fill="url(#paint12_linear_18_2321)"/>
<path d="M96.6575 62.4658L150.312 95.0795L149.523 71.9343L96.9205 39.8466L96.6575 62.4658Z" fill="url(#paint13_linear_18_2321)"/>
<path d="M105.6 95.0795L114.542 90.0822L62.7288 59.8356L54.5753 65.0959L105.6 95.0795Z" fill="url(#paint14_linear_18_2321)"/>
<path d="M23.8027 58.7836L33.2712 63.7808L96.9205 28.274L160.833 64.5699L168.197 59.8356L96.9205 18.5425L23.8027 58.7836Z" fill="url(#paint15_linear_18_2321)"/>
<path d="M96.9205 39.8466L54.5753 65.0959L53.7863 64.5699L96.9205 39.0575L149.523 71.1452V71.9343L96.9205 39.8466Z" fill="url(#paint16_linear_18_2321)"/>
<path d="M149.523 71.9343L150.312 95.0795L141.633 89.8192L140.844 66.6371L149.523 71.9343Z" fill="url(#paint17_linear_18_2321)"/>
<path d="M105.337 67.726L141.633 89.8192L141.107 76.6685L105.337 55.3644V67.726Z" fill="url(#paint18_linear_18_2321)"/>
<path d="M150.312 95.0795L149.786 71.6712L149.523 71.1452V71.9343L150.049 94.9217L150.312 95.0795Z" fill="url(#paint19_linear_18_2321)"/>
<path d="M97.7096 122.959L97.1836 100.077L96.9205 99.5507V100.34L97.4466 122.801L97.7096 122.959Z" fill="url(#paint20_linear_18_2321)"/>
<path d="M96.9205 99.8137L23.8027 58.7836L24.3288 58.5206L97.4466 99.5507L96.9205 99.8137Z" fill="url(#paint21_linear_18_2321)"/>
<defs>
<filter id="filter0_d_18_2321" x="18.0658" y="109.019" width="159.869" height="80.4384" filterUnits="userSpaceOnUse" color-interpolation-filters="sRGB">
<feFlood flood-opacity="0" result="BackgroundImageFix"/>
<feColorMatrix in="SourceAlpha" type="matrix" values="0 0 0 0 0 0 0 0 0 0 0 0 0 0 0 0 0 0 127 0" result="hardAlpha"/>
<feOffset dx="2" dy="8"/>
<feGaussianBlur stdDeviation="4"/>
<feComposite in2="hardAlpha" operator="out"/>
<feColorMatrix type="matrix" values="0 0 0 0 0.152941 0 0 0 0 0.0980392 0 0 0 0 0.490196 0 0 0 0.4 0"/>
<feBlend mode="normal" in2="BackgroundImageFix" result="effect1_dropShadow_18_2321"/>
<feBlend mode="normal" in="SourceGraphic" in2="effect1_dropShadow_18_2321" result="shape"/>
</filter>
<linearGradient id="paint0_linear_18_2321" x1="24.0658" y1="164.127" x2="112.756" y2="67.2508" gradientUnits="userSpaceOnUse">
<stop stop-color="#187DF3"/>
<stop offset="1" stop-color="#016AFD"/>
</linearGradient>
<linearGradient id="paint1_linear_18_2321" x1="23.5501" y1="117.766" x2="119.336" y2="213.879" gradientUnits="userSpaceOnUse">
<stop stop-color="#04E9C7"/>
<stop offset="0.510417" stop-color="#0CD0E6"/>
<stop offset="1" stop-color="#059BFA"/>
</linearGradient>
<linearGradient id="paint2_linear_18_2321" x1="60.1647" y1="60.7803" x2="177.218" y2="91.3065" gradientUnits="userSpaceOnUse">
<stop stop-color="#98FEFE"/>
<stop offset="1" stop-color="#1BD9FB"/>
</linearGradient>
<linearGradient id="paint3_linear_18_2321" x1="-23.8904" y1="109.371" x2="-23.8875" y2="175.906" gradientUnits="userSpaceOnUse">
<stop stop-color="#6BFFFF" stop-opacity="0.8"/>
<stop offset="1" stop-color="#3298ED" stop-opacity="0.8"/>
</linearGradient>
<linearGradient id="paint4_linear_18_2321" x1="24.0658" y1="109.21" x2="151.247" y2="197.171" gradientUnits="userSpaceOnUse">
<stop stop-color="#E7FFFF"/>
<stop offset="0.494792" stop-color="#A1FFFF"/>
<stop offset="1" stop-color="#55F6FA"/>
</linearGradient>
<linearGradient id="paint5_linear_18_2321" x1="27.1268" y1="150.26" x2="166.639" y2="125.047" gradientUnits="userSpaceOnUse">
<stop stop-color="#0ABFFA"/>
<stop offset="1" stop-color="#2997E6"/>
</linearGradient>
<linearGradient id="paint6_linear_18_2321" x1="167.934" y1="166.298" x2="51.0928" y2="81.1133" gradientUnits="userSpaceOnUse">
<stop stop-color="#0CCBFB"/>
<stop offset="1" stop-color="#00D3FE"/>
</linearGradient>
<linearGradient id="paint7_linear_18_2321" x1="97.4466" y1="144.263" x2="115.332" y2="134.005" gradientUnits="userSpaceOnUse">
<stop stop-color="#008CF7"/>
<stop offset="1" stop-color="#0CCBFB"/>
</linearGradient>
<linearGradient id="paint8_linear_18_2321" x1="79.1671" y1="50.2356" x2="88.1728" y2="69.4171" gradientUnits="userSpaceOnUse">
<stop stop-color="#9F0085"/>
<stop offset="1" stop-color="#F94154"/>
</linearGradient>
<linearGradient id="paint9_linear_18_2321" x1="23.8027" y1="51.9215" x2="163.04" y2="99.6912" gradientUnits="userSpaceOnUse">
<stop stop-color="#FFB032"/>
<stop offset="1" stop-color="#FF5D42"/>
</linearGradient>
<radialGradient id="paint10_radial_18_2321" cx="0" cy="0" r="1" gradientUnits="userSpaceOnUse" gradientTransform="translate(96.789 99.4192) rotate(38.5119) scale(47.7303 12.7669)">
<stop offset="0.0255775" stop-color="#AA027F"/>
<stop offset="0.990286" stop-color="#EB2161"/>
</radialGradient>
<radialGradient id="paint11_radial_18_2321" cx="0" cy="0" r="1" gradientUnits="userSpaceOnUse" gradientTransform="translate(149.918 71.0137) rotate(30.6937) scale(66.9839 17.9168)">
<stop offset="0.0255775" stop-color="#AA027F"/>
<stop offset="1" stop-color="#EB2161"/>
</radialGradient>
<linearGradient id="paint12_linear_18_2321" x1="33.5342" y1="77.678" x2="161.359" y2="77.8827" gradientUnits="userSpaceOnUse">
<stop stop-color="#FDDE66"/>
<stop offset="1" stop-color="#FD9637"/>
</linearGradient>
<linearGradient id="paint13_linear_18_2321" x1="23.0949" y1="30.4758" x2="136.936" y2="93.4836" gradientUnits="userSpaceOnUse">
<stop stop-color="#EC225F"/>
<stop offset="1" stop-color="#F32A5D"/>
</linearGradient>
<linearGradient id="paint14_linear_18_2321" x1="33.3024" y1="26.3348" x2="166.701" y2="90.708" gradientUnits="userSpaceOnUse">
<stop stop-color="#FCA041"/>
<stop offset="1" stop-color="#FC8B3B"/>
</linearGradient>
<linearGradient id="paint15_linear_18_2321" x1="167.934" y1="112.219" x2="23.7931" y2="111.639" gradientUnits="userSpaceOnUse">
<stop stop-color="#FF6F3D"/>
<stop offset="1" stop-color="#FFDF66"/>
</linearGradient>
<linearGradient id="paint16_linear_18_2321" x1="87.6695" y1="16.8718" x2="192.171" y2="47.5585" gradientUnits="userSpaceOnUse">
<stop stop-color="#FFF4C7"/>
<stop offset="0.815836" stop-color="#FFE197"/>
<stop offset="1" stop-color="#FC9840"/>
</linearGradient>
<linearGradient id="paint17_linear_18_2321" x1="96" y1="18.6778" x2="96" y2="122.959" gradientUnits="userSpaceOnUse">
<stop stop-color="#FF9A3F"/>
<stop offset="1" stop-color="#FF862C"/>
</linearGradient>
<linearGradient id="paint18_linear_18_2321" x1="23.8027" y1="41.6576" x2="145.621" y2="135.52" gradientUnits="userSpaceOnUse">
<stop stop-color="#FE5A43"/>
<stop offset="0.515625" stop-color="#FF603F"/>
<stop offset="1" stop-color="#FF5046"/>
</linearGradient>
<linearGradient id="paint19_linear_18_2321" x1="71.9342" y1="19.6899" x2="71.9479" y2="122.962" gradientUnits="userSpaceOnUse">
<stop stop-color="#FCA14A"/>
<stop offset="0.0409926" stop-color="#FEC79F"/>
<stop offset="1" stop-color="#F2CEC5"/>
</linearGradient>
<linearGradient id="paint20_linear_18_2321" x1="71.9342" y1="19.7157" x2="71.9485" y2="125.309" gradientUnits="userSpaceOnUse">
<stop stop-color="#FCA14A"/>
<stop offset="0.0409926" stop-color="#FEC79F"/>
<stop offset="1" stop-color="#F2CEC5"/>
</linearGradient>
<linearGradient id="paint21_linear_18_2321" x1="23.8027" y1="58.5206" x2="97.4466" y2="100.077" gradientUnits="userSpaceOnUse">
<stop stop-color="#FFFED8"/>
<stop offset="1" stop-color="#FFE28D"/>
</linearGradient>
</defs>
</svg>
